<svg width="296" height="141" viewBox="0 0 296 141" fill="none" xmlns="http://www.w3.org/2000/svg">
<rect width="296" height="141" fill="#F1F1F2"/>
<g clip-path="url(#clip0_225_22472)">
<path d="M87.5 43C87.5 39.6863 90.1863 37 93.5 37H202.5C205.814 37 208.5 39.6863 208.5 43V98C208.5 101.314 205.814 104 202.5 104H93.5C90.1863 104 87.5 101.314 87.5 98V43Z" fill="white"/>
<mask id="path-3-inside-1_225_22472" fill="white">
<path d="M87.5 37H208.5V49H87.5V37Z"/>
</mask>
<path d="M87.5 37H208.5V49H87.5V37Z" fill="#F9FAFA"/>
<path d="M208.5 48H87.5V50H208.5V48Z" fill="#E7E7E8" mask="url(#path-3-inside-1_225_22472)"/>
<rect x="93.5" y="41" width="4" height="4" rx="2" fill="#E53E3E"/>
<rect x="100.5" y="41" width="4" height="4" rx="2" fill="#FBC434"/>
<rect x="107.5" y="41" width="4" height="4" rx="2" fill="#0EA371"/>
<rect x="97.5" y="59" width="29" height="3" rx="1.5" fill="#ABADAF"/>
<rect x="108.5" y="65" width="18" height="3" rx="1.5" fill="#D3D4D5"/>
<rect x="136.5" y="59" width="10" height="3" rx="1.5" fill="#8952E0"/>
<path d="M138.5 64.5H163.5C164.328 64.5 165 65.1716 165 66V71C165 71.8284 164.328 72.5 163.5 72.5H138.5C137.672 72.5 137 71.8284 137 71V66C137 65.1716 137.672 64.5 138.5 64.5Z" fill="white"/>
<path d="M138.5 64.5H163.5C164.328 64.5 165 65.1716 165 66V71C165 71.8284 164.328 72.5 163.5 72.5H138.5C137.672 72.5 137 71.8284 137 71V66C137 65.1716 137.672 64.5 138.5 64.5Z" stroke="#8952E0"/>
<rect x="169.5" y="59" width="10" height="3" rx="1.5" fill="#D3D4D5"/>
<path d="M171.5 64.5H196.5C197.328 64.5 198 65.1716 198 66V71C198 71.8284 197.328 72.5 196.5 72.5H171.5C170.672 72.5 170 71.8284 170 71V66C170 65.1716 170.672 64.5 171.5 64.5Z" fill="white"/>
<path d="M171.5 64.5H196.5C197.328 64.5 198 65.1716 198 66V71C198 71.8284 197.328 72.5 196.5 72.5H171.5C170.672 72.5 170 71.8284 170 71V66C170 65.1716 170.672 64.5 171.5 64.5Z" stroke="#E7E7E8"/>
<rect x="136.5" y="77" width="10" height="3" rx="1.5" fill="#D3D4D5"/>
<path d="M138.5 82.5H196.5C197.328 82.5 198 83.1716 198 84V89C198 89.8284 197.328 90.5 196.5 90.5H138.5C137.672 90.5 137 89.8284 137 89V84C137 83.1716 137.672 82.5 138.5 82.5Z" fill="white"/>
<path d="M138.5 82.5H196.5C197.328 82.5 198 83.1716 198 84V89C198 89.8284 197.328 90.5 196.5 90.5H138.5C137.672 90.5 137 89.8284 137 89V84C137 83.1716 137.672 82.5 138.5 82.5Z" stroke="#E7E7E8"/>
</g>
<path d="M93.5 37.5H202.5C205.538 37.5 208 39.9624 208 43V98C208 101.038 205.538 103.5 202.5 103.5H93.5C90.4624 103.5 88 101.038 88 98V43C88 39.9624 90.4624 37.5 93.5 37.5Z" stroke="#D3D4D5"/>
<defs>
<clipPath id="clip0_225_22472">
<path d="M87.5 43C87.5 39.6863 90.1863 37 93.5 37H202.5C205.814 37 208.5 39.6863 208.5 43V98C208.5 101.314 205.814 104 202.5 104H93.5C90.1863 104 87.5 101.314 87.5 98V43Z" fill="white"/>
</clipPath>
</defs>
</svg>
