<svg width="296" height="141" viewBox="0 0 296 141" fill="none" xmlns="http://www.w3.org/2000/svg">
<rect width="296" height="141" fill="#F1F1F2"/>
<path d="M101.5 33.5H194.5C197.538 33.5 200 35.9624 200 39V44C200 47.0376 197.538 49.5 194.5 49.5H101.5C98.4624 49.5 96 47.0376 96 44V39C96 35.9624 98.4624 33.5 101.5 33.5Z" fill="white"/>
<path d="M101.5 33.5H194.5C197.538 33.5 200 35.9624 200 39V44C200 47.0376 197.538 49.5 194.5 49.5H101.5C98.4624 49.5 96 47.0376 96 44V39C96 35.9624 98.4624 33.5 101.5 33.5Z" stroke="#D3D4D5"/>
<rect x="101.5" y="40" width="29" height="3" rx="1.5" fill="#E7E7E8"/>
<path d="M191.141 43.3594L189.141 41.3594C189 41.2188 188.953 41 189.031 40.8125C189.109 40.625 189.297 40.5 189.5 40.5H193.5C193.703 40.5 193.875 40.625 193.953 40.8125C194.031 41 193.984 41.2188 193.844 41.3594L191.844 43.3594C191.656 43.5625 191.328 43.5625 191.141 43.3594Z" fill="#171A1D"/>
<path d="M101.5 54.5H194.5C197.538 54.5 200 56.9624 200 60V102C200 105.038 197.538 107.5 194.5 107.5H101.5C98.4624 107.5 96 105.038 96 102V60C96 56.9624 98.4624 54.5 101.5 54.5Z" fill="white"/>
<path d="M101.5 54.5H194.5C197.538 54.5 200 56.9624 200 60V102C200 105.038 197.538 107.5 194.5 107.5H101.5C98.4624 107.5 96 105.038 96 102V60C96 56.9624 98.4624 54.5 101.5 54.5Z" stroke="#D3D4D5"/>
<rect x="103.5" y="58.5" width="9" height="9" rx="4.5" fill="#ABADAF"/>
<rect x="117.5" y="58" width="33" height="3" rx="1.5" fill="#ABADAF"/>
<rect x="117.5" y="65" width="16" height="3" rx="1.5" fill="#D3D4D5"/>
<path d="M95.5 72H200.5V90H95.5V72Z" fill="#8952E0"/>
<rect x="103.5" y="76.5" width="9" height="9" rx="4.5" fill="white"/>
<rect x="117.5" y="76" width="33" height="3" rx="1.5" fill="white"/>
<rect x="117.5" y="83" width="16" height="3" rx="1.5" fill="#A379E7"/>
<rect x="103.5" y="94.5" width="9" height="9" rx="4.5" fill="#ABADAF"/>
<rect x="117.5" y="94" width="33" height="3" rx="1.5" fill="#ABADAF"/>
<rect x="117.5" y="101" width="16" height="3" rx="1.5" fill="#D3D4D5"/>
</svg>
