<svg width="296" height="141" viewBox="0 0 296 141" fill="none" xmlns="http://www.w3.org/2000/svg">
<rect width="296" height="141" fill="#F1F1F2"/>
<path d="M86 36.5H162C165.038 36.5 167.5 38.9624 167.5 42V99C167.5 102.038 165.038 104.5 162 104.5H86C82.9624 104.5 80.5 102.038 80.5 99V42C80.5 38.9624 82.9624 36.5 86 36.5Z" fill="white"/>
<path d="M86 36.5H162C165.038 36.5 167.5 38.9624 167.5 42V99C167.5 102.038 165.038 104.5 162 104.5H86C82.9624 104.5 80.5 102.038 80.5 99V42C80.5 38.9624 82.9624 36.5 86 36.5Z" stroke="#D3D4D5"/>
<rect x="88" y="44" width="36" height="3" rx="1.5" fill="#8952E0"/>
<path d="M89.125 54.25C89.125 53.6348 89.6172 53.125 90.25 53.125H93.0625V55.375C93.0625 55.6914 93.3086 55.9375 93.625 55.9375H95.875V61C95.875 61.6328 95.3652 62.125 94.75 62.125H90.25C89.6172 62.125 89.125 61.6328 89.125 61V54.25ZM95.875 55.375H93.625V53.125L95.875 55.375Z" fill="#D3D4D5"/>
<rect x="100" y="53" width="60" height="3" rx="1.5" fill="#D3D4D5"/>
<rect x="100" y="59" width="24" height="3" rx="1.5" fill="#D3D4D5"/>
<path d="M89.125 88.25C89.125 87.6348 89.6172 87.125 90.25 87.125H93.0625V89.375C93.0625 89.6914 93.3086 89.9375 93.625 89.9375H95.875V95C95.875 95.6328 95.3652 96.125 94.75 96.125H90.25C89.6172 96.125 89.125 95.6328 89.125 95V88.25ZM95.875 89.375H93.625V87.125L95.875 89.375Z" fill="#D3D4D5"/>
<rect x="100" y="87" width="60" height="3" rx="1.5" fill="#D3D4D5"/>
<rect x="100" y="93" width="24" height="3" rx="1.5" fill="#D3D4D5"/>
<rect x="100.5" y="65.5" width="81" height="18" rx="3.5" fill="white"/>
<rect x="100.5" y="65.5" width="81" height="18" rx="3.5" stroke="#D3D4D5"/>
<path d="M105.75 70.5C105.75 69.8164 106.297 69.25 107 69.25H110.125V71.75C110.125 72.1016 110.398 72.375 110.75 72.375H113.25V78C113.25 78.7031 112.684 79.25 112 79.25H107C106.297 79.25 105.75 78.7031 105.75 78V70.5ZM110.75 71.75V69.25L113.25 71.75H110.75Z" fill="#ABADAF"/>
<rect x="117" y="70" width="60" height="3" rx="1.5" fill="#ABADAF"/>
<rect x="117" y="77" width="24" height="3" rx="1.5" fill="#D3D4D5"/>
<path d="M175.375 79.3438C175.375 79.0898 175.57 78.875 175.824 78.875C175.922 78.875 176.039 78.9336 176.117 78.9922L181.469 83.7578C181.566 83.8359 181.625 83.9531 181.625 84.0703C181.625 84.3242 181.43 84.5 181.176 84.5H178.871L179.984 86.7266C180.141 87.0391 180.023 87.4102 179.711 87.5664C179.398 87.7227 179.027 87.6055 178.871 87.293L177.738 85.0078L176.117 86.8633C176.039 86.9609 175.922 87 175.805 87C175.551 87 175.375 86.8242 175.375 86.5703V79.3438Z" fill="#171A1D"/>
</svg>
