<svg width="296" height="141" viewBox="0 0 296 141" fill="none" xmlns="http://www.w3.org/2000/svg">
<rect width="296" height="141" fill="#F1F1F2"/>
<path d="M95 42H139C142.038 42 144.5 44.4624 144.5 47.5V61.5C144.5 64.5376 142.038 67 139 67H95C91.9624 67 89.5 64.5376 89.5 61.5V47.5C89.5 44.4624 91.9624 42 95 42Z" fill="white"/>
<path d="M95 42H139C142.038 42 144.5 44.4624 144.5 47.5V61.5C144.5 64.5376 142.038 67 139 67H95C91.9624 67 89.5 64.5376 89.5 61.5V47.5C89.5 44.4624 91.9624 42 95 42Z" stroke="#D3D4D5"/>
<rect x="97" y="50" width="9" height="9" rx="4.5" fill="#ABADAF"/>
<rect x="111" y="49.5" width="14" height="3" rx="1.5" fill="#ABADAF"/>
<rect x="111" y="56.5" width="22" height="3" rx="1.5" fill="#D3D4D5"/>
<path d="M157 42H201C204.038 42 206.5 44.4624 206.5 47.5V61.5C206.5 64.5376 204.038 67 201 67H157C153.962 67 151.5 64.5376 151.5 61.5V47.5C151.5 44.4624 153.962 42 157 42Z" fill="white"/>
<path d="M157 42H201C204.038 42 206.5 44.4624 206.5 47.5V61.5C206.5 64.5376 204.038 67 201 67H157C153.962 67 151.5 64.5376 151.5 61.5V47.5C151.5 44.4624 153.962 42 157 42Z" stroke="#D3D4D5"/>
<rect x="159" y="50" width="9" height="9" rx="4.5" fill="#ABADAF"/>
<rect x="173" y="49.5" width="14" height="3" rx="1.5" fill="#ABADAF"/>
<rect x="173" y="56.5" width="22" height="3" rx="1.5" fill="#D3D4D5"/>
<path d="M95 74H139C142.038 74 144.5 76.4624 144.5 79.5V93.5C144.5 96.5376 142.038 99 139 99H95C91.9624 99 89.5 96.5376 89.5 93.5V79.5C89.5 76.4624 91.9624 74 95 74Z" fill="white"/>
<path d="M95 74H139C142.038 74 144.5 76.4624 144.5 79.5V93.5C144.5 96.5376 142.038 99 139 99H95C91.9624 99 89.5 96.5376 89.5 93.5V79.5C89.5 76.4624 91.9624 74 95 74Z" stroke="#D3D4D5"/>
<rect x="97" y="82" width="9" height="9" rx="4.5" fill="#ABADAF"/>
<rect x="111" y="81.5" width="14" height="3" rx="1.5" fill="#ABADAF"/>
<rect x="111" y="88.5" width="22" height="3" rx="1.5" fill="#D3D4D5"/>
<path d="M157 74H201C204.038 74 206.5 76.4624 206.5 79.5V93.5C206.5 96.5376 204.038 99 201 99H157C153.962 99 151.5 96.5376 151.5 93.5V79.5C151.5 76.4624 153.962 74 157 74Z" fill="white"/>
<path d="M157 74H201C204.038 74 206.5 76.4624 206.5 79.5V93.5C206.5 96.5376 204.038 99 201 99H157C153.962 99 151.5 96.5376 151.5 93.5V79.5C151.5 76.4624 153.962 74 157 74Z" stroke="#D3D4D5"/>
<rect x="159" y="82" width="9" height="9" rx="4.5" fill="#ABADAF"/>
<rect x="173" y="81.5" width="14" height="3" rx="1.5" fill="#ABADAF"/>
<rect x="173" y="88.5" width="22" height="3" rx="1.5" fill="#D3D4D5"/>
</svg>
