<svg width="296" height="141" viewBox="0 0 296 141" fill="none" xmlns="http://www.w3.org/2000/svg">
<mask id="path-1-inside-1_225_22447" fill="white">
<path d="M0 0H296V141H0V0Z"/>
</mask>
<path d="M0 141.5H1V140.5H0V141.5ZM3 141.5H5V140.5H3V141.5ZM7 141.5H9V140.5H7V141.5ZM11 141.5H13V140.5H11V141.5ZM15 141.5H17V140.5H15V141.5ZM19 141.5H21V140.5H19V141.5ZM23 141.5H25V140.5H23V141.5ZM27 141.5H29V140.5H27V141.5ZM31 141.5H33V140.5H31V141.5ZM35 141.5H37V140.5H35V141.5ZM39 141.5H41V140.5H39V141.5ZM43 141.5H45V140.5H43V141.5ZM47 141.5H49V140.5H47V141.5ZM51 141.5H53V140.5H51V141.5ZM55 141.5H57V140.5H55V141.5ZM59 141.5H61V140.5H59V141.5ZM63 141.5H65V140.5H63V141.5ZM67 141.5H69V140.5H67V141.5ZM71 141.5H73V140.5H71V141.5ZM75 141.5H77V140.5H75V141.5ZM79 141.5H81V140.5H79V141.5ZM83 141.5H85V140.5H83V141.5ZM87 141.5H89V140.5H87V141.5ZM91 141.5H93V140.5H91V141.5ZM95 141.5H97V140.5H95V141.5ZM99 141.5H101V140.5H99V141.5ZM103 141.5H105V140.5H103V141.5ZM107 141.5H109V140.5H107V141.5ZM111 141.5H113V140.5H111V141.5ZM115 141.5H117V140.5H115V141.5ZM119 141.5H121V140.5H119V141.5ZM123 141.5H125V140.5H123V141.5ZM127 141.5H129V140.5H127V141.5ZM131 141.5H133V140.5H131V141.5ZM135 141.5H137V140.5H135V141.5ZM139 141.5H141V140.5H139V141.5ZM143 141.5H145V140.5H143V141.5ZM147 141.5H149V140.5H147V141.5ZM151 141.5H153V140.5H151V141.5ZM155 141.5H157V140.5H155V141.5ZM159 141.5H161V140.5H159V141.5ZM163 141.5H165V140.5H163V141.5ZM167 141.5H169V140.5H167V141.5ZM171 141.5H173V140.5H171V141.5ZM175 141.5H177V140.5H175V141.5ZM179 141.5H181V140.5H179V141.5ZM183 141.5H185V140.5H183V141.5ZM187 141.5H189V140.5H187V141.5ZM191 141.5H193V140.5H191V141.5ZM195 141.5H197V140.5H195V141.5ZM199 141.5H201V140.5H199V141.5ZM203 141.5H205V140.5H203V141.5ZM207 141.5H209V140.5H207V141.5ZM211 141.5H213V140.5H211V141.5ZM215 141.5H217V140.5H215V141.5ZM219 141.5H221V140.5H219V141.5ZM223 141.5H225V140.5H223V141.5ZM227 141.5H229V140.5H227V141.5ZM231 141.5H233V140.5H231V141.5ZM235 141.5H237V140.5H235V141.5ZM239 141.5H241V140.5H239V141.5ZM243 141.5H245V140.5H243V141.5ZM247 141.5H249V140.5H247V141.5ZM251 141.5H253V140.5H251V141.5ZM255 141.5H257V140.5H255V141.5ZM259 141.5H261V140.5H259V141.5ZM263 141.5H265V140.5H263V141.5ZM267 141.5H269V140.5H267V141.5ZM271 141.5H273V140.5H271V141.5ZM275 141.5H277V140.5H275V141.5ZM279 141.5H281V140.5H279V141.5ZM283 141.5H285V140.5H283V141.5ZM287 141.5H289V140.5H287V141.5ZM291 141.5H293V140.5H291V141.5ZM295 141.5H296V140.5H295V141.5ZM0 142H1V140H0V142ZM3 142H5V140H3V142ZM7 142H9V140H7V142ZM11 142H13V140H11V142ZM15 142H17V140H15V142ZM19 142H21V140H19V142ZM23 142H25V140H23V142ZM27 142H29V140H27V142ZM31 142H33V140H31V142ZM35 142H37V140H35V142ZM39 142H41V140H39V142ZM43 142H45V140H43V142ZM47 142H49V140H47V142ZM51 142H53V140H51V142ZM55 142H57V140H55V142ZM59 142H61V140H59V142ZM63 142H65V140H63V142ZM67 142H69V140H67V142ZM71 142H73V140H71V142ZM75 142H77V140H75V142ZM79 142H81V140H79V142ZM83 142H85V140H83V142ZM87 142H89V140H87V142ZM91 142H93V140H91V142ZM95 142H97V140H95V142ZM99 142H101V140H99V142ZM103 142H105V140H103V142ZM107 142H109V140H107V142ZM111 142H113V140H111V142ZM115 142H117V140H115V142ZM119 142H121V140H119V142ZM123 142H125V140H123V142ZM127 142H129V140H127V142ZM131 142H133V140H131V142ZM135 142H137V140H135V142ZM139 142H141V140H139V142ZM143 142H145V140H143V142ZM147 142H149V140H147V142ZM151 142H153V140H151V142ZM155 142H157V140H155V142ZM159 142H161V140H159V142ZM163 142H165V140H163V142ZM167 142H169V140H167V142ZM171 142H173V140H171V142ZM175 142H177V140H175V142ZM179 142H181V140H179V142ZM183 142H185V140H183V142ZM187 142H189V140H187V142ZM191 142H193V140H191V142ZM195 142H197V140H195V142ZM199 142H201V140H199V142ZM203 142H205V140H203V142ZM207 142H209V140H207V142ZM211 142H213V140H211V142ZM215 142H217V140H215V142ZM219 142H221V140H219V142ZM223 142H225V140H223V142ZM227 142H229V140H227V142ZM231 142H233V140H231V142ZM235 142H237V140H235V142ZM239 142H241V140H239V142ZM243 142H245V140H243V142ZM247 142H249V140H247V142ZM251 142H253V140H251V142ZM255 142H257V140H255V142ZM259 142H261V140H259V142ZM263 142H265V140H263V142ZM267 142H269V140H267V142ZM271 142H273V140H271V142ZM275 142H277V140H275V142ZM279 142H281V140H279V142ZM283 142H285V140H283V142ZM287 142H289V140H287V142ZM291 142H293V140H291V142ZM295 142H296V140H295V142Z" fill="#D3D4D5" mask="url(#path-1-inside-1_225_22447)"/>
<g opacity="0.5">
<path d="M188.023 32V32.5H189C189.368 32.5 189.727 32.5359 190.074 32.6045L190.17 32.1143C190.957 32.2699 191.689 32.5797 192.333 33.0107L192.056 33.4258C192.656 33.8275 193.173 34.3443 193.574 34.9443L193.988 34.666C194.419 35.3099 194.729 36.0417 194.885 36.8291L194.396 36.9258C194.464 37.2727 194.5 37.632 194.5 38V39.0156H195V41.0469H194.5V43.0781H195V45.1094H194.5V47.1406H195V49.1719H194.5V51.2031H195V53.2344H194.5V55.2656H195V57.2969H194.5V59.3281H195V61.3594H194.5V63.3906H195V65.4219H194.5V67.4531H195V69.4844H194.5V71.5156H195V73.5469H194.5V75.5781H195V77.6094H194.5V79.6406H195V81.6719H194.5V83.7031H195V85.7344H194.5V87.7656H195V89.7969H194.5V91.8281H195V93.8594H194.5V95.8906H195V97.9219H194.5V99.9531H195V101.984H194.5V103C194.5 103.368 194.464 103.727 194.396 104.074L194.885 104.17C194.729 104.957 194.419 105.689 193.988 106.333L193.574 106.056C193.173 106.656 192.656 107.173 192.056 107.574L192.333 107.988C191.689 108.419 190.957 108.729 190.17 108.885L190.074 108.396C189.727 108.464 189.368 108.5 189 108.5H188.023V109H186.071V108.5H184.119V109H182.167V108.5H180.214V109H178.262V108.5H176.31V109H174.357V108.5H172.404V109H170.452V108.5H168.5V109H166.548V108.5H164.596V109H162.643V108.5H160.69V109H158.738V108.5H156.786V109H154.833V108.5H152.881V109H150.929V108.5H148.977V109H147.023V108.5H145.071V109H143.119V108.5H141.167V109H139.214V108.5H137.262V109H135.31V108.5H133.357V109H131.404V108.5H129.452V109H127.5V108.5H125.548V109H123.596V108.5H121.643V109H119.69V108.5H117.738V109H115.786V108.5H113.833V109H111.881V108.5H109.929V109H107.977V108.5H107C106.632 108.5 106.273 108.464 105.926 108.396L105.829 108.885C105.042 108.729 104.31 108.419 103.666 107.988L103.944 107.574C103.344 107.173 102.827 106.656 102.426 106.056L102.011 106.333C101.58 105.689 101.27 104.957 101.114 104.17L101.604 104.074C101.536 103.727 101.5 103.368 101.5 103V101.984H101V99.9531H101.5V97.9219H101V95.8906H101.5V93.8594H101V91.8281H101.5V89.7969H101V87.7656H101.5V85.7344H101V83.7031H101.5V81.6719H101V79.6406H101.5V77.6094H101V75.5781H101.5V73.5469H101V71.5156H101.5V69.4844H101V67.4531H101.5V65.4219H101V63.3906H101.5V61.3594H101V59.3281H101.5V57.2969H101V55.2656H101.5V53.2344H101V51.2031H101.5V49.1719H101V47.1406H101.5V45.1094H101V43.0781H101.5V41.0469H101V39.0156H101.5V38C101.5 37.632 101.536 37.2727 101.604 36.9258L101.114 36.8291C101.27 36.0418 101.58 35.3098 102.011 34.666L102.426 34.9443C102.827 34.3443 103.344 33.8275 103.944 33.4258L103.666 33.0107C104.31 32.5797 105.042 32.27 105.829 32.1143L105.926 32.6045C106.273 32.5359 106.632 32.5 107 32.5H107.977V32H109.929V32.5H111.881V32H113.833V32.5H115.786V32H117.738V32.5H119.69V32H121.643V32.5H123.596V32H125.548V32.5H127.5V32H129.452V32.5H131.404V32H133.357V32.5H135.31V32H137.262V32.5H139.214V32H141.167V32.5H143.119V32H145.071V32.5H147.023V32H148.977V32.5H150.929V32H152.881V32.5H154.833V32H156.786V32.5H158.738V32H160.69V32.5H162.643V32H164.596V32.5H166.548V32H168.5V32.5H170.452V32H172.404V32.5H174.357V32H176.31V32.5H178.262V32H180.214V32.5H182.167V32H184.119V32.5H186.071V32H188.023Z" stroke="#ABADAF" stroke-dasharray="2 2"/>
<g opacity="0.15">
<rect x="139" y="42.5" width="18" height="18" rx="9" fill="#8952E0"/>
</g>
<path d="M151.812 54.4375L149.938 52.5625C150.359 51.9375 150.578 51.1562 150.469 50.3125C150.266 48.875 149.094 47.7188 147.672 47.5312C145.547 47.2656 143.75 49.0625 144.016 51.1875C144.203 52.6094 145.359 53.7812 146.797 53.9844C147.641 54.0938 148.422 53.875 149.062 53.4531L150.922 55.3281C151.172 55.5625 151.562 55.5625 151.812 55.3281C152.047 55.0781 152.047 54.6875 151.812 54.4375ZM145.234 50.75C145.234 49.6562 146.125 48.75 147.234 48.75C148.328 48.75 149.234 49.6562 149.234 50.75C149.234 51.8594 148.328 52.75 147.234 52.75C146.125 52.75 145.234 51.8594 145.234 50.75Z" fill="#8952E0"/>
<rect x="118" y="68.5" width="60" height="4" rx="2" fill="#ABADAF"/>
<rect x="132" y="76.5" width="32" height="4" rx="2" fill="#D3D4D5"/>
<path d="M134.5 90.5C134.5 89.3954 135.395 88.5 136.5 88.5H159.5C160.605 88.5 161.5 89.3954 161.5 90.5V96.5C161.5 97.6046 160.605 98.5 159.5 98.5H136.5C135.395 98.5 134.5 97.6046 134.5 96.5V90.5Z" fill="#8952E0"/>
<rect x="138.5" y="92.5" width="19" height="2" rx="1" fill="white"/>
</g>
</svg>
