<svg width="296" height="141" viewBox="0 0 296 141" fill="none" xmlns="http://www.w3.org/2000/svg">
<rect width="296" height="141" fill="#F1F1F2"/>
<path d="M87 42.5H209C212.038 42.5 214.5 44.9624 214.5 48V93C214.5 96.0376 212.038 98.5 209 98.5H87C83.9624 98.5 81.5 96.0376 81.5 93V48C81.5 44.9624 83.9624 42.5 87 42.5Z" fill="white"/>
<path d="M87 42.5H209C212.038 42.5 214.5 44.9624 214.5 48V93C214.5 96.0376 212.038 98.5 209 98.5H87C83.9624 98.5 81.5 96.0376 81.5 93V48C81.5 44.9624 83.9624 42.5 87 42.5Z" stroke="#D3D4D5"/>
<rect x="90" y="52" width="37" height="3" rx="1.5" fill="#ABADAF"/>
<rect x="90" y="61" width="116" height="3" rx="1.5" fill="#D3D4D5"/>
<rect x="90" y="68" width="116" height="3" rx="1.5" fill="#D3D4D5"/>
<path d="M151 80.5H172C172.828 80.5 173.5 81.1716 173.5 82V88C173.5 88.8284 172.828 89.5 172 89.5H151C150.172 89.5 149.5 88.8284 149.5 88V82C149.5 81.1716 150.172 80.5 151 80.5Z" fill="white"/>
<path d="M151 80.5H172C172.828 80.5 173.5 81.1716 173.5 82V88C173.5 88.8284 172.828 89.5 172 89.5H151C150.172 89.5 149.5 88.8284 149.5 88V82C149.5 81.1716 150.172 80.5 151 80.5Z" stroke="#D3D4D5"/>
<rect x="153" y="84" width="17" height="2" rx="1" fill="#D3D4D5"/>
<path d="M179 82C179 80.8954 179.895 80 181 80H204C205.105 80 206 80.8954 206 82V88C206 89.1046 205.105 90 204 90H181C179.895 90 179 89.1046 179 88V82Z" fill="#8952E0"/>
<rect x="183" y="84" width="19" height="2" rx="1" fill="white"/>
<path d="M209.758 47.5195L208.527 48.75L209.758 49.9922C209.91 50.1328 209.91 50.3789 209.758 50.5195C209.617 50.6719 209.371 50.6719 209.23 50.5195L208 49.2891L206.758 50.5195C206.617 50.6719 206.371 50.6719 206.23 50.5195C206.078 50.3789 206.078 50.1328 206.23 49.9922L207.461 48.75L206.23 47.5195C206.078 47.3789 206.078 47.1328 206.23 46.9922C206.371 46.8398 206.617 46.8398 206.758 46.9922L208 48.2227L209.23 46.9922C209.371 46.8398 209.617 46.8398 209.758 46.9922C209.91 47.1328 209.91 47.3789 209.758 47.5195Z" fill="#ABADAF"/>
</svg>
