<svg width="296" height="141" viewBox="0 0 296 141" fill="none" xmlns="http://www.w3.org/2000/svg">
<rect width="296" height="141" fill="#F1F1F2"/>
<g clip-path="url(#clip0_225_22432)">
<path d="M82.5 36.5C82.5 33.1863 85.1863 30.5 88.5 30.5H207.5C210.814 30.5 213.5 33.1863 213.5 36.5V104.5C213.5 107.814 210.814 110.5 207.5 110.5H88.5C85.1863 110.5 82.5 107.814 82.5 104.5V36.5Z" fill="white"/>
<mask id="path-3-inside-1_225_22432" fill="white">
<path d="M82.5 30.5H213.5V42.5H82.5V30.5Z"/>
</mask>
<path d="M82.5 30.5H213.5V42.5H82.5V30.5Z" fill="#F9FAFA"/>
<path d="M213.5 41.5H82.5V43.5H213.5V41.5Z" fill="#E7E7E8" mask="url(#path-3-inside-1_225_22432)"/>
<rect x="88.5" y="34.5" width="4" height="4" rx="2" fill="#E53E3E"/>
<rect x="95.5" y="34.5" width="4" height="4" rx="2" fill="#FBC434"/>
<rect x="102.5" y="34.5" width="4" height="4" rx="2" fill="#0EA371"/>
<mask id="path-8-inside-2_225_22432" fill="white">
<path d="M82.5 42.5H213.5V55.5H82.5V42.5Z"/>
</mask>
<path d="M82.5 42.5H213.5V55.5H82.5V42.5Z" fill="white"/>
<path d="M213.5 54.5H82.5V56.5H213.5V54.5Z" fill="#E7E7E8" mask="url(#path-8-inside-2_225_22432)"/>
<rect x="91.5" y="45.5" width="7" height="7" rx="3.5" fill="#D3D4D5"/>
<rect x="104.5" y="47.5" width="17" height="3" rx="1.5" fill="#D3D4D5"/>
<rect x="127.5" y="47.5" width="17" height="3" rx="1.5" fill="#D3D4D5"/>
<rect x="150.5" y="47.5" width="17" height="3" rx="1.5" fill="#D3D4D5"/>
<path d="M137.5 62.5C137.5 60.8431 138.843 59.5 140.5 59.5H205.5C207.157 59.5 208.5 60.8431 208.5 62.5V74.5C208.5 76.1569 207.157 77.5 205.5 77.5H140.5C138.843 77.5 137.5 76.1569 137.5 74.5V62.5Z" fill="#8952E0"/>
<path d="M148.5 66.25C148.5 67.9141 147.152 69.25 145.5 69.25C143.836 69.25 142.5 67.9141 142.5 66.25C142.5 64.5977 143.836 63.25 145.5 63.25C147.152 63.25 148.5 64.5977 148.5 66.25Z" fill="#A379E7"/>
<rect x="151.5" y="64.5" width="32" height="3" rx="1.5" fill="#A379E7"/>
<rect x="151.5" y="69.5" width="20" height="3" rx="1.5" fill="#B795EC"/>
<rect x="194.5" y="64.5" width="9" height="3" rx="1.5" fill="#B795EC"/>
</g>
<path d="M88.5 31H207.5C210.538 31 213 33.4624 213 36.5V104.5C213 107.538 210.538 110 207.5 110H88.5C85.4624 110 83 107.538 83 104.5V36.5C83 33.4624 85.4624 31 88.5 31Z" stroke="#D3D4D5"/>
<defs>
<clipPath id="clip0_225_22432">
<path d="M82.5 36.5C82.5 33.1863 85.1863 30.5 88.5 30.5H207.5C210.814 30.5 213.5 33.1863 213.5 36.5V104.5C213.5 107.814 210.814 110.5 207.5 110.5H88.5C85.1863 110.5 82.5 107.814 82.5 104.5V36.5Z" fill="white"/>
</clipPath>
</defs>
</svg>
