<svg width="296" height="141" viewBox="0 0 296 141" fill="none" xmlns="http://www.w3.org/2000/svg">
<g clip-path="url(#clip0_225_22442)">
<rect width="296" height="141" fill="#F1F1F2"/>
<path d="M70 41.5H226C229.038 41.5 231.5 43.9624 231.5 47V146C231.5 149.038 229.038 151.5 226 151.5H70C66.9624 151.5 64.5 149.038 64.5 146V47L64.5068 46.7168C64.6542 43.8108 67.0574 41.5 70 41.5Z" fill="#F9FAFA"/>
<path d="M70 41.5H226C229.038 41.5 231.5 43.9624 231.5 47V146C231.5 149.038 229.038 151.5 226 151.5H70C66.9624 151.5 64.5 149.038 64.5 146V47L64.5068 46.7168C64.6542 43.8108 67.0574 41.5 70 41.5Z" stroke="#D3D4D5"/>
<mask id="path-2-inside-1_225_22442" fill="white">
<path d="M64 41H232V53H64V41Z"/>
</mask>
<path d="M64 41H232V53H64V41Z" fill="#F9FAFA"/>
<path d="M232 52H64V54H232V52Z" fill="#E7E7E8" mask="url(#path-2-inside-1_225_22442)"/>
<rect x="70" y="45" width="4" height="4" rx="2" fill="#E53E3E"/>
<rect x="77" y="45" width="4" height="4" rx="2" fill="#FBC434"/>
<rect x="84" y="45" width="4" height="4" rx="2" fill="#0EA371"/>
<mask id="path-7-outside-2_225_22442" maskUnits="userSpaceOnUse" x="179" y="53" width="53" height="96" fill="black">
<rect fill="white" x="179" y="53" width="53" height="96"/>
<path d="M180 53H232V149H180V53Z"/>
</mask>
<path d="M180 53H232V149H180V53Z" fill="white"/>
<path d="M181 149V53H179V149H181Z" fill="#E7E7E8" mask="url(#path-7-outside-2_225_22442)"/>
<path d="M227.258 58.9922C227.41 59.1328 227.41 59.3789 227.258 59.5195C227.188 59.5898 227.094 59.625 227 59.625C226.895 59.625 226.801 59.5898 226.73 59.5195L225.5 58.2891L224.258 59.5195C224.188 59.5898 224.094 59.625 224 59.625C223.895 59.625 223.801 59.5898 223.73 59.5195C223.578 59.3789 223.578 59.1328 223.73 58.9922L224.961 57.75L223.73 56.5195C223.578 56.3789 223.578 56.1328 223.73 55.9922C223.871 55.8398 224.117 55.8398 224.258 55.9922L225.5 57.2227L226.73 55.9922C226.871 55.8398 227.117 55.8398 227.258 55.9922C227.41 56.1328 227.41 56.3789 227.258 56.5195L226.027 57.7617L227.258 58.9922Z" fill="#D3D4D5"/>
<rect x="186" y="66" width="23" height="3" rx="1.5" fill="#ABADAF"/>
<rect x="186" y="72" width="16" height="3" rx="1.5" fill="#D3D4D5"/>
<rect x="186" y="83" width="23" height="3" rx="1.5" fill="#ABADAF"/>
<rect x="186" y="89" width="16" height="3" rx="1.5" fill="#D3D4D5"/>
<rect x="186" y="100" width="23" height="3" rx="1.5" fill="#ABADAF"/>
<rect x="186" y="106" width="16" height="3" rx="1.5" fill="#D3D4D5"/>
</g>
<defs>
<clipPath id="clip0_225_22442">
<rect width="296" height="141" fill="white"/>
</clipPath>
</defs>
</svg>
